<?xml version="1.0" encoding="iso-8859-1"?>
<!-- Generator: Adobe Illustrator 16.0.0, SVG Export Plug-In . SVG Version: 6.00 Build 0)  -->
<!DOCTYPE svg PUBLIC "-//W3C//DTD SVG 1.1//EN" "http://www.w3.org/Graphics/SVG/1.1/DTD/svg11.dtd">
<svg version="1.1" id="Capa_1" xmlns="http://www.w3.org/2000/svg" xmlns:xlink="http://www.w3.org/1999/xlink" x="0px" y="0px"
	 width="424px" height="424px" viewBox="0 0 424 424" style="enable-background:new 0 0 424 424;" xml:space="preserve">
<g>
	<g>
		<path d="M332.383,0H91.618c-9.584,0-17.378,7.794-17.378,17.378v389.243c0,9.585,7.794,17.379,17.378,17.379h240.765
			c9.584,0,17.378-7.794,17.378-17.379V17.378C349.761,7.794,341.967,0,332.383,0z M168.347,46.765h87.294
			c5.169,0,9.353,4.183,9.353,9.353c0,5.17-4.184,9.354-9.353,9.354h-87.294c-5.167,0-9.353-4.184-9.353-9.354
			C158.994,50.948,163.187,46.765,168.347,46.765z M212,397.207c-19.607,0-35.558-15.953-35.558-35.561
			c0-19.606,15.951-35.561,35.558-35.561c19.607,0,35.561,15.954,35.561,35.561C247.561,381.254,231.607,397.207,212,397.207z
			 M316.143,305.529c0,5.17-4.183,9.354-9.353,9.354H113.496c-5.17,0-9.353-4.184-9.353-9.354V81.059
			c0-5.17,4.183-9.353,9.353-9.353H306.79c5.17,0,9.353,4.183,9.353,9.353V305.529z"/>
		<path d="M212,344.792c9.311,0,16.854,7.551,16.854,16.854c0,9.305-7.544,16.855-16.854,16.855
			c-9.307,0-16.852-7.551-16.852-16.855C195.148,352.343,202.693,344.792,212,344.792z"/>
		<rect x="122.849" y="90.412" width="174.589" height="205.764"/>
	</g>
</g>
<g>
</g>
<g>
</g>
<g>
</g>
<g>
</g>
<g>
</g>
<g>
</g>
<g>
</g>
<g>
</g>
<g>
</g>
<g>
</g>
<g>
</g>
<g>
</g>
<g>
</g>
<g>
</g>
<g>
</g>
</svg>
