<?xml version="1.0" encoding="iso-8859-1"?>
<!-- Generator: Adobe Illustrator 19.0.0, SVG Export Plug-In . SVG Version: 6.00 Build 0)  -->
<svg version="1.1" id="Capa_1" xmlns="http://www.w3.org/2000/svg" xmlns:xlink="http://www.w3.org/1999/xlink" x="0px" y="0px"
	 viewBox="0 0 490 490" style="enable-background:new 0 0 490 490;" xml:space="preserve">
<g>
	<g>
		<g>
			<path d="M467.8,189.4c18.7,75.4-1.4,158.4-60.4,217.3C348,466.2,264,486.1,188.1,466.6c28.4,14.7,60.7,23,95,23
				C397.4,489.6,490,397,490,282.7C490,249.2,482,217.5,467.8,189.4z"/>
		</g>
		<g>
			<path d="M430.4,151.9c18.7,75.4-1.4,158.4-60.4,217.3c-59.4,59.4-143.4,79.4-219.4,59.8c28.4,14.7,60.7,23,95,23
				c114.3,0,206.9-92.6,206.9-206.9C452.5,211.6,444.5,179.9,430.4,151.9z"/>
		</g>
		<path d="M206.9,0.4C92.6,0.4,0,93,0,207.3s92.6,206.9,206.9,206.9s206.9-92.6,206.9-206.9S321.2,0.4,206.9,0.4z M225.7,317.1v13
			c0,10.4-8.4,18.8-18.8,18.8c-10.4,0-18.8-8.4-18.8-18.8v-13c-11-3.3-21.1-9.4-29-17.9c-7.1-7.5-6.7-19.4,0.8-26.5
			s19.4-6.7,26.5,0.8c5.4,5.7,12.6,8.8,20.5,8.8c15.5,0,28.1-12.6,28.1-28.1s-12.6-28.1-28.1-28.1l0,0c-36.2,0-65.6-29.4-65.6-65.6
			c0-29.7,19.8-54.8,46.9-62.9v-13c0-10.4,8.4-18.8,18.8-18.8c10.4,0,18.8,8.4,18.8,18.8v13c11,3.3,21.1,9.4,29,17.9
			c7.1,7.5,6.7,19.4-0.8,26.5c-7.5,7.1-19.4,6.7-26.5-0.8c-5.4-5.7-12.6-8.8-20.5-8.8c-15.5,0-28.1,12.6-28.1,28.1
			s12.6,28.1,28.1,28.1l0,0c36.2,0,65.6,29.4,65.6,65.6C272.6,283.8,252.8,309,225.7,317.1z"/>
	</g>
</g>
<g>
</g>
<g>
</g>
<g>
</g>
<g>
</g>
<g>
</g>
<g>
</g>
<g>
</g>
<g>
</g>
<g>
</g>
<g>
</g>
<g>
</g>
<g>
</g>
<g>
</g>
<g>
</g>
<g>
</g>
</svg>
