<?xml version="1.0" encoding="iso-8859-1"?>
<!-- Generator: Adobe Illustrator 19.0.0, SVG Export Plug-In . SVG Version: 6.00 Build 0)  -->
<svg version="1.1" id="Layer_1" xmlns="http://www.w3.org/2000/svg" xmlns:xlink="http://www.w3.org/1999/xlink" x="0px" y="0px"
	 viewBox="0 0 461.305 461.305" style="enable-background:new 0 0 461.305 461.305;" xml:space="preserve">
<g id="XMLID_819_">
	<g>
		<g>
			<path d="M365.764,229.834c-12.702,9.473-28.37,14.931-45.037,14.931c-15.848,0-31.677-4.969-45.037-14.931
				c-12.702,9.473-28.369,14.931-45.037,14.931c-15.845,0-31.675-4.968-45.037-14.931c-12.704,9.474-28.372,14.931-45.037,14.931
				c-15.877,0-31.703-4.987-45.037-14.931c-12.706,9.474-28.372,14.931-45.037,14.931c-13.187,0-25.589-3.412-36.385-9.385v210.053
				c0,5.572,4.517,10.089,10.089,10.089h159.095V299.309c0-5.572,4.517-10.089,10.089-10.089h74.521
				c5.572,0,10.089,4.517,10.089,10.089v156.213h159.094c5.572,0,10.089-4.517,10.089-10.089V235.38
				c-10.796,5.973-23.198,9.385-36.385,9.385C394.988,244.765,379.152,239.816,365.764,229.834z M46.013,310.135
				c0-7.979,6.468-14.446,14.446-14.446h73.695c7.979,0,14.447,6.468,14.447,14.446v8.95H46.013V310.135z M148.602,394.685
				L148.602,394.685c-0.001,7.978-6.469,14.446-14.448,14.446H60.46c-7.979,0-14.446-6.468-14.446-14.446v-45.71h102.588V394.685z
				 M415.09,394.685c0,7.978-6.468,14.446-14.447,14.446h-73.695c-7.979,0-14.446-6.468-14.446-14.446v-45.71H415.09V394.685z
				 M415.09,310.135v8.95H312.502v-8.95c0-7.979,6.468-14.446,14.446-14.446h73.695C408.622,295.689,415.09,302.157,415.09,310.135z
				"/>
			<path d="M50.504,219.857c19.668,0,36.697-11.249,45.037-27.658c8.341,16.408,25.37,27.658,45.037,27.658
				c19.668,0,36.697-11.25,45.038-27.658c8.34,16.408,25.369,27.658,45.037,27.658c19.668,0,36.697-11.25,45.037-27.658
				c8.34,16.408,25.37,27.658,45.037,27.658c19.668,0,36.697-11.249,45.037-27.658c8.341,16.408,25.37,27.658,45.037,27.658
				c27.893,0,50.504-22.612,50.504-50.504c0.001-9.165-37.568-140.631-37.568-140.631c-3.614-13.528-15.868-22.939-29.871-22.939
				H68.403c-13.929,0-26.139,9.314-29.819,22.748C36.958,34.464,0,159.952,0,169.353C0,197.246,22.611,219.857,50.504,219.857z"/>
		</g>
	</g>
</g>
<g>
</g>
<g>
</g>
<g>
</g>
<g>
</g>
<g>
</g>
<g>
</g>
<g>
</g>
<g>
</g>
<g>
</g>
<g>
</g>
<g>
</g>
<g>
</g>
<g>
</g>
<g>
</g>
<g>
</g>
</svg>
